<?xml version="1.0" encoding="UTF-8" standalone="no"?>
<svg xmlns="http://www.w3.org/2000/svg" width="1920" height="1024" viewBox="0 0 1920 1024">
  <defs>
    <linearGradient id="goldGrad" x1="0%" y1="0%" x2="100%">
      <stop offset="0%" stop-color="#E7C980" stop-opacity="0.0"/>
      <stop offset="35%" stop-color="#E7C980" stop-opacity="0.6"/>
      <stop offset="65%" stop-color="#E7C980" stop-opacity="0.6"/>
      <stop offset="100%" stop-color="#E7C980" stop-opacity="0.0"/>
    </linearGradient>
    <linearGradient id="goldSoft" x1="0%" y1="0%" x2="0%" y2="100%">
      <stop offset="0%" stop-color="#E7C980" stop-opacity="0.12"/>
      <stop offset="100%" stop-color="#E7C980" stop-opacity="0.02"/>
    </linearGradient>
    <filter id="softGlow" x="-20%" y="-20%" width="140%" height="140%">
      <feGaussianBlur stdDeviation="18" result="blur"/>
      <feMerge>
        <feMergeNode in="blur"/>
        <feMergeNode in="SourceGraphic"/>
      </feMerge>
    </filter>
  </defs>

  <rect x="0" y="0" width="1920" height="1024" fill="#0B0D10"/>
  <rect x="0" y="0" width="1920" height="1024" fill="url(#goldSoft)" opacity="0.25"/>

  <g stroke="url(#goldGrad)" stroke-width="3" fill="none" opacity="0.65" filter="url(#softGlow)">
    <path d="M 0 120 C 480 60, 960 180, 1920 100" />
    <path d="M 0 -904 C 480 -964, 960 -844, 1920 -924" />
    <path d="M 0 1144 C 480 1084, 960 1204, 1920 1124" />

    <path d="M 0 520 C 400 620, 1200 420, 1920 560" />
    <path d="M 0 -504 C 400 -404, 1200 -604, 1920 -464" />
    <path d="M 0 1544 C 400 1644, 1200 1444, 1920 1584" />

    <path d="M 0 900 C 600 820, 1280 1050, 1920 940" />
    <path d="M 0 -124 C 600 -204, 1280 26, 1920 -84" />
    <path d="M 0 1924 C 600 1844, 1280 2074, 1920 1964" />
  </g>

  <g opacity="0.25" filter="url(#softGlow)">
    <rect x="200" y="200" width="420" height="120" rx="60" ry="60" fill="#E7C980" opacity="0.18"/>
    <rect x="1220" y="720" width="520" height="110" rx="55" ry="55" fill="#E7C980" opacity="0.14"/>
  </g>
</svg>